<svg xmlns="http://www.w3.org/2000/svg" xmlns:xlink="http://www.w3.org/1999/xlink" aria-hidden="true" role="img" width="1em" height="1em" preserveAspectRatio="xMidYMid meet" viewBox="0 0 24 24"><path fill="currentColor" d="M14.23 12.004a2.236 2.236 0 0 1-2.235 2.236a2.236 2.236 0 0 1-2.236-2.236a2.236 2.236 0 0 1 2.235-2.236a2.236 2.236 0 0 1 2.236 2.236zm2.648-10.69c-1.346 0-3.107.96-4.888 2.622c-1.78-1.653-3.542-2.602-4.887-2.602c-.41 0-.783.093-1.106.278c-1.375.793-1.683 3.264-.973 6.365C1.98 8.917 0 10.42 0 12.004c0 1.59 1.99 3.097 5.043 4.03c-.704 3.113-.39 5.588.988 6.38c.32.187.69.275 1.102.275c1.345 0 3.107-.96 4.888-2.624c1.78 1.654 3.542 2.603 4.887 2.603c.41 0 .783-.09 1.106-.275c1.374-.792 1.683-3.263.973-6.365C22.02 15.096 24 13.59 24 12.004c0-1.59-1.99-3.097-5.043-4.032c.704-3.11.39-5.587-.988-6.38a2.167 2.167 0 0 0-1.092-.278zm-.005 1.09v.006c.225 0 .406.044.558.127c.666.382.955 1.835.73 3.704c-.054.46-.142.945-.25 1.44a23.476 23.476 0 0 0-3.107-.534A23.892 23.892 0 0 0 12.769 4.7c1.592-1.48 3.087-2.292 4.105-2.295zm-9.77.02c1.012 0 2.514.808 4.11 2.28c-.686.72-1.37 1.537-2.02 2.417a22.73 22.73 0 0 0-3.113.538a15.02 15.02 0 0 1-.254-1.42c-.23-1.868.054-3.32.714-3.707c.19-.09.4-.127.563-.127zm4.882 3.05c.455.468.91.992 1.36 1.564c-.44-.02-.89-.034-1.345-.034c-.46 0-.915.01-1.36.034c.44-.572.895-1.096 1.345-1.565zM12 8.1c.74 0 1.477.034 2.202.093c.406.582.802 1.203 1.183 1.86c.372.64.71 1.29 1.018 1.946c-.308.655-.646 1.31-1.013 1.95c-.38.66-.773 1.288-1.18 1.87a25.64 25.64 0 0 1-4.412.005a26.64 26.64 0 0 1-1.183-1.86c-.372-.64-.71-1.29-1.018-1.946c.303-.657.646-1.313 1.013-1.954c.38-.66.773-1.286 1.18-1.868A25.697 25.697 0 0 1 12 8.098zm-3.635.254c-.24.377-.48.763-.704 1.16c-.225.39-.435.782-.635 1.174c-.265-.656-.49-1.31-.676-1.947c.64-.15 1.315-.283 2.015-.386zm7.26 0c.695.103 1.365.23 2.006.387c-.18.632-.405 1.282-.66 1.933a25.57 25.57 0 0 0-1.345-2.32zm3.063.675c.484.15.944.317 1.375.498c1.732.74 2.852 1.708 2.852 2.476c-.005.768-1.125 1.74-2.857 2.475c-.42.18-.88.342-1.355.493a23.54 23.54 0 0 0-1.182-2.98c.45-1.017.81-2.01 1.067-2.964zm-13.395.004c.258.96.62 1.957 1.07 2.98c-.32 1.02-.676 2.015-1.18 2.97a14.62 14.62 0 0 1-1.356-.49C1.876 14.134.754 13.162.753 12.396c0-.77 1.12-1.742 2.852-2.475c.43-.18.89-.353 1.372-.497zm9.92 2.97a20.717 20.717 0 0 1-.676 1.956a27.19 27.19 0 0 1-2.025.393a26.805 26.805 0 0 1-1.38-2.353a26.89 26.89 0 0 1 1.381-2.348a26.908 26.908 0 0 1 2.014.388c.28.775.52 1.562.686 1.962zm-8.43 0c.166-.4.405-1.19.69-1.967c.645-.155 1.326-.293 2.022-.388a27.19 27.19 0 0 1 1.372 2.348a26.822 26.822 0 0 1-1.373 2.353a24.9 24.9 0 0 1-2.016-.386a20.761 20.761 0 0 1-.697-1.96zm13.54 2.45l-.29.09c-.325-.06-.656-.11-.98-.167v.12h.015c.312 0 .61.004.905.02c.12.044.226.166.32.268c.2.24.314.54.314.863c0 .222-.076.45-.22.682c-.193.308-.594.58-1.2.58c-.606 0-1.007-.272-1.2-.58c-.143-.232-.22-.46-.22-.68c0-.237.07-.466.19-.662c.126-.21.302-.38.524-.49v-.324c-1.277.183-2.43.628-3.303 1.26c-.896.646-1.444 1.41-1.444 2.036s.55 1.39 1.444 2.037c.876.634 2.033 1.077 3.304 1.26V19.95a.463.463 0 0 0-.524-.49c-.12.196-.19.425-.19.662c0 .22.077.45.22.682c.193.308.594.58 1.2.58c.606 0 1.007-.272 1.2-.58c.143-.232.22-.46.22-.68c0-.323-.113-.624-.314-.863c-.09-.1-.195-.223-.32-.267c-.295-.015-.593-.02-.905-.02h-.01v-.08c.303-.05.622-.094.93-.15l.3-.08a21.56 21.56 0 0 0 1.955-.54c-.31.966-.732 2.054-1.27 3.235c-.644 1.482-1.31 3.13-1.548 5.07c-.017.12-.033.253-.033.37c0 .4.188.622.644.622c.344 0 .557-.166.66-.324c.05-.074.086-.178.11-.26c.132-.474.252-.94.36-1.395l.226-1.024h.33L16.52 18.4c.233.246.44.517.62.8c.205.335.37.698.5 1.08c.126.39.232.8.31 1.22c.06.306.092.622.092.947c0 .31-.022.623-.073.92a6.94 6.94 0 0 1-.661 2.132c-.31.597-.685 1.052-1.106 1.372c-.833.636-1.92 1.04-3.3 1.26v.324a.463.463 0 0 0-.524.49c.12.196.19.425.19.662c0 .22.077.45.22.682c.193.308.594.58 1.2.58c.606 0 1.007-.272 1.2-.58c.143-.232.22-.46.22-.68c0-.323-.113-.624-.314-.863c-.09-.1-.195-.223-.32-.267c-.295-.015-.593-.02-.905-.02h-.01v-.08c.303-.05.622-.094.93-.15l.3-.083c1.273-.225 2.43-.66 3.303-1.26c.896-.646 1.444-1.41 1.444-2.036s-.55-1.39-1.444-2.037c-.873-.632-2.03-1.076-3.304-1.26v.325c.222.11.398.28.524.49c.12.196.19.425.19.662c0 .22.077.45.22.682c.193.308.594.58 1.2.58c.606 0 1.007-.272 1.2-.58c.143-.232.22-.46.22-.68c0-.323-.113-.624-.314-.863c-.09-.1-.195-.223-.32-.267c-.295-.015-.593-.02-.905-.02h-.01v-.08c.303-.05.622-.094.93-.15l.3-.08c1.273-.226 2.43-.662 3.303-1.26c.896-.646 1.444-1.41 1.444-2.037s-.55-1.39-1.444-2.036c-.873-.632-2.03-1.077-3.304-1.26v.324c.222.11.398.28.524.49c.12.196.19.425.19.662c0 .22.077.45.22.682c.193.308.594.58 1.2.58c.606 0 1.007-.272 1.2-.58c.143-.232.22-.46.22-.68c0-.323-.113-.624-.314-.863c-.09-.1-.195-.223-.32-.267c-.295-.015-.593-.02-.905-.02h-.015v-.012c.345-.06.688-.12 1.023-.19l.257-.08c.85-.287 1.63-.624 2.238-1.01c.655-.418 1.138-.893 1.356-1.395c.26-.592.39-1.186.39-1.77c0-.587-.133-1.18-.39-1.77c-.218-.503-.7-.977-1.356-1.396c-.607-.386-1.387-.723-2.237-1.01z"/></svg>
